<?xml version="1.0" encoding="UTF-8"?>
<svg version="1.1" xmlns="http://www.w3.org/2000/svg" width="500" height="500">
<path d="M0 0 C165 0 330 0 500 0 C500 165 500 330 500 500 C335 500 170 500 0 500 C0 335 0 170 0 0 Z " fill="#FEFEFE" transform="translate(0,0)"/>
<path d="M0 0 C0.69996094 0.55300781 1.39992188 1.10601562 2.12109375 1.67578125 C2.79011719 2.15660156 3.45914063 2.63742188 4.1484375 3.1328125 C17.94062102 13.04679788 28.78613607 24.89535841 37.12109375 39.67578125 C37.9409375 41.09310547 37.9409375 41.09310547 38.77734375 42.5390625 C41.9690319 48.42577305 44.11523964 54.38309993 45.93359375 60.80078125 C46.14072998 61.52869873 46.34786621 62.25661621 46.5612793 63.0065918 C52.57551447 85.60622731 50.68776346 112.02591684 42.12109375 133.67578125 C41.46109375 133.67578125 40.80109375 133.67578125 40.12109375 133.67578125 C39.81365234 134.72378906 39.81365234 134.72378906 39.5 135.79296875 C39.09587891 137.15808594 39.09587891 137.15808594 38.68359375 138.55078125 C38.41675781 139.45570313 38.14992188 140.360625 37.875 141.29296875 C37.12109375 143.67578125 37.12109375 143.67578125 36.12109375 145.67578125 C35.46109375 145.67578125 34.80109375 145.67578125 34.12109375 145.67578125 C33.84652344 146.41054687 33.57195312 147.1453125 33.2890625 147.90234375 C24.42065827 168.96109627 1.25628818 183.99690229 -18.87890625 192.67578125 C-32.76664312 198.31929332 -46.88196623 199.80441967 -61.73083496 200.87988281 C-86.11191819 202.66389559 -110.94124495 204.54221718 -134.87890625 209.67578125 C-135.70100586 209.8469043 -136.52310547 210.01802734 -137.37011719 210.19433594 C-147.58183743 212.3494429 -157.14582878 214.79782921 -166.64453125 219.18359375 C-170.09517748 220.77555856 -173.58455262 222.18102013 -177.12890625 223.55078125 C-178.1859375 223.96070313 -179.24296875 224.370625 -180.33203125 224.79296875 C-182.87890625 225.67578125 -182.87890625 225.67578125 -184.87890625 225.67578125 C-185.20890625 226.66578125 -185.53890625 227.65578125 -185.87890625 228.67578125 C-187.5038913 229.74217769 -189.18486791 230.72288468 -190.87890625 231.67578125 C-193.16339879 233.19063192 -195.42980143 234.7303771 -197.6953125 236.2734375 C-199.70691679 237.56532648 -201.72054791 238.6528858 -203.87890625 239.67578125 C-203.87890625 240.33578125 -203.87890625 240.99578125 -203.87890625 241.67578125 C-205.52193578 243.36575448 -207.19361937 245.02794519 -208.87890625 246.67578125 C-212.91027809 251.01532348 -214.95248214 254.65269465 -216.62890625 260.30078125 C-216.94021484 261.28304687 -216.94021484 261.28304687 -217.2578125 262.28515625 C-218.82871591 267.29177743 -220.00292295 271.59659885 -220.01261902 276.8508606 C-220.016884 277.89682404 -220.02114899 278.94278748 -220.02554321 280.02044678 C-220.02509003 281.16241516 -220.02463684 282.30438354 -220.02416992 283.48095703 C-220.02752853 284.6877713 -220.03088715 285.89458557 -220.03434753 287.13796997 C-220.0422175 290.44356635 -220.04552487 293.74909992 -220.04616332 297.05470133 C-220.04711345 299.81343066 -220.05079263 302.57215398 -220.05433542 305.330881 C-220.06247259 311.83598758 -220.06492019 318.34108032 -220.06420898 324.84619141 C-220.06360723 331.56274075 -220.07418016 338.27921003 -220.08995265 344.9957391 C-220.10300914 350.76056298 -220.10839373 356.5253606 -220.10775357 362.29019916 C-220.10749818 365.73425735 -220.11037242 369.17824426 -220.12093163 372.62228775 C-220.13237165 376.45802221 -220.12787746 380.29364575 -220.12182617 384.12939453 C-220.13025543 385.8484198 -220.13025543 385.8484198 -220.13885498 387.60217285 C-220.13466049 388.64249664 -220.130466 389.68282043 -220.12614441 390.75466919 C-220.12696156 392.11573886 -220.12696156 392.11573886 -220.12779522 393.50430489 C-220.08281297 395.88653307 -220.08281297 395.88653307 -217.87890625 397.67578125 C-215.49287618 397.97945494 -215.49287618 397.97945494 -212.67207336 397.92746353 C-211.56160487 397.93267903 -210.45113638 397.93789452 -209.30701733 397.94326806 C-208.07688569 397.93880662 -206.84675406 397.93434517 -205.5793457 397.92974854 C-204.28047833 397.93286852 -202.98161097 397.9359885 -201.64338398 397.93920302 C-198.02602864 397.94758839 -194.40877819 397.9434089 -190.79142237 397.93723059 C-186.89498828 397.93272231 -182.99857278 397.93968175 -179.10214233 397.94519043 C-171.46425542 397.95410352 -163.82640772 397.95215392 -156.18851924 397.94636515 C-149.98339309 397.94185617 -143.77827795 397.94123243 -137.57315063 397.94341278 C-136.69143419 397.94371925 -135.80971774 397.94402571 -134.90128261 397.94434147 C-133.11033113 397.94498089 -131.31937966 397.94562931 -129.5284282 397.94628665 C-112.71787192 397.95199555 -95.90733742 397.94542328 -79.09678471 397.93468592 C-64.65923879 397.9257499 -50.22172503 397.92730178 -35.78417969 397.93652344 C-19.03552184 397.94721619 -2.2868831 397.95144618 14.46177769 397.94529891 C16.24629783 397.94466178 18.03081798 397.94403304 19.81533813 397.94341278 C21.13251163 397.94294995 21.13251163 397.94294995 22.4762947 397.94247778 C28.67702134 397.94074785 34.87773592 397.94367234 41.07846069 397.94837189 C48.63069292 397.95396969 56.18288356 397.95248756 63.735111 397.9418104 C67.5915034 397.93653878 71.44782634 397.93452213 75.30421829 397.9411087 C79.4767176 397.94812762 83.64904012 397.93977119 87.8215332 397.92974854 C89.66673066 397.9364407 89.66673066 397.9364407 91.54920483 397.94326806 C92.65967332 397.93805257 93.77014181 397.93283707 94.91426086 397.92746353 C95.8784258 397.92713883 96.84259073 397.92681412 97.83597279 397.92647958 C100.31876678 397.89529231 100.31876678 397.89529231 102.12109375 395.67578125 C102.43091036 393.42379168 102.43091036 393.42379168 102.38851929 390.77726746 C102.39704926 389.74153595 102.40557922 388.70580444 102.41436768 387.63868713 C102.4134613 386.49745895 102.41255493 385.35623077 102.41162109 384.18041992 C102.41833832 382.98181335 102.42505554 381.78320679 102.43197632 380.54827881 C102.44776004 377.25209778 102.45433423 373.95616876 102.45560789 370.65996718 C102.45702938 368.59645939 102.46129934 366.53297795 102.46660233 364.4694767 C102.48513152 357.25738478 102.49327093 350.04536687 102.49169922 342.83325195 C102.49050289 336.13503821 102.511497 329.43714937 102.54318655 322.73901767 C102.56947424 316.97490001 102.58006105 311.21088744 102.5787884 305.44671041 C102.57828162 302.01056832 102.58380273 298.57471368 102.6051445 295.13863182 C102.62488848 291.29031484 102.61893059 287.44281447 102.60693359 283.59448242 C102.61817261 282.47552078 102.62941162 281.35655914 102.64099121 280.20368958 C102.54613147 268.14124335 99.10245111 257.51083213 92.12109375 247.67578125 C91.64285156 247.00160156 91.16460937 246.32742188 90.671875 245.6328125 C81.18525483 233.66103239 66.61627108 227.01025224 53.12109375 220.67578125 C52.99609375 217.80078125 52.99609375 217.80078125 53.12109375 214.67578125 C55.12109375 212.67578125 55.12109375 212.67578125 58.74609375 212.55078125 C59.85984375 212.59203125 60.97359375 212.63328125 62.12109375 212.67578125 C62.12109375 213.33578125 62.12109375 213.99578125 62.12109375 214.67578125 C62.96414063 214.92457031 63.8071875 215.17335938 64.67578125 215.4296875 C76.59073568 219.73906444 86.3254901 227.78936754 95.12109375 236.67578125 C95.87132812 237.40410156 96.6215625 238.13242187 97.39453125 238.8828125 C109.38481964 251.26358921 113.60268845 267.36746855 113.50927734 284.20214844 C113.51716278 285.98503517 113.51716278 285.98503517 113.52520752 287.80393982 C113.53830445 291.69364957 113.52970806 295.58294308 113.51953125 299.47265625 C113.52020111 302.19403408 113.52446391 304.91540473 113.52822876 307.63677979 C113.53366228 313.3221887 113.5265552 319.00748008 113.51220703 324.69287109 C113.49585356 331.24820738 113.5011981 337.80326407 113.51768625 344.3585937 C113.53133249 350.01244128 113.53320645 355.66620509 113.52537024 361.32006383 C113.52071493 364.6859643 113.52000998 368.0517336 113.52997971 371.41762543 C113.53761509 375.16760583 113.52596115 378.91705152 113.50927734 382.66699219 C113.51535004 383.76951828 113.52142273 384.87204437 113.52767944 386.00798035 C113.46855584 393.19688253 112.85205623 399.21656211 108.24609375 405.05078125 C104.20736392 408.13922171 100.53046384 408.92575729 95.50943851 408.93305016 C94.38501349 408.93949905 93.26058846 408.94594794 92.10208994 408.95259225 C90.87175246 408.94949505 89.64141499 408.94639785 88.37379456 408.94320679 C86.407506 408.95000346 86.407506 408.95000346 84.40149444 408.95693743 C80.76444435 408.96917387 77.1274862 408.96890623 73.49042022 408.96654868 C69.56737021 408.96614068 65.64434974 408.97717793 61.72131348 408.98666382 C54.03638165 409.00327762 46.35148051 409.00877351 38.66653223 409.00988857 C32.42098853 409.01083874 26.17545497 409.01494744 19.92991447 409.02128983 C2.22649744 409.0389022 -15.47689535 409.04812854 -33.18032121 409.04662888 C-34.13474343 409.04654897 -35.08916566 409.04646905 -36.07250977 409.04638672 C-37.02809574 409.04630496 -37.98368171 409.0462232 -38.96822483 409.04613896 C-54.46092597 409.04532575 -69.95352996 409.06447218 -85.44620299 409.09266345 C-101.35019172 409.12137513 -117.25413303 409.13520474 -133.15814835 409.1334759 C-142.08862763 409.13281147 -151.01900502 409.13832706 -159.94946098 409.159832 C-167.5516749 409.1780211 -175.15374073 409.18240979 -182.75596695 409.16881315 C-186.63523415 409.16227234 -190.51421706 409.16220616 -194.39345741 409.17951965 C-198.59739576 409.19808956 -202.80067273 409.18572532 -207.00462341 409.17025757 C-208.23273017 409.18054469 -209.46083692 409.19083182 -210.72615904 409.20143068 C-217.05720811 409.14976368 -221.12994388 409.05273737 -225.87890625 404.67578125 C-229.76273332 399.63730289 -230.99776368 395.99299703 -231.01934814 389.74003601 C-231.02505829 388.74651627 -231.03076843 387.75299652 -231.03665161 386.72937012 C-231.03776947 385.64522827 -231.03888733 384.56108643 -231.04003906 383.4440918 C-231.04500397 382.29717361 -231.04996887 381.15025543 -231.05508423 379.96858215 C-231.06971024 376.16654868 -231.07651107 372.36455702 -231.08203125 368.5625 C-231.08633035 366.58350917 -231.09063 364.60451834 -231.09500575 362.62552768 C-231.10681705 357.10418977 -231.11435315 351.58286191 -231.11780095 346.06151265 C-231.12226383 338.95566488 -231.13972774 331.85001118 -231.16880155 324.74422234 C-231.19055836 319.23227169 -231.20051284 313.72037501 -231.20184207 308.20838195 C-231.20288139 304.92649588 -231.21008751 301.64483149 -231.22666168 298.3629818 C-231.35080569 271.87537135 -228.70702596 253.15424787 -209.87890625 233.23828125 C-201.46070444 224.98219061 -187.07966638 212.67578125 -174.87890625 212.67578125 C-174.87890625 212.01578125 -174.87890625 211.35578125 -174.87890625 210.67578125 C-140.09368104 198.31257818 -105.38295999 193.72667509 -68.73071289 191.15771484 C-40.56075808 189.13606536 -14.36115995 184.3129334 7.12109375 164.67578125 C7.9615625 163.928125 8.80203125 163.18046875 9.66796875 162.41015625 C27.12140692 146.04078256 38.49968473 122.40458746 39.49609375 98.53125 C39.79442564 85.89975073 39.65147704 73.79574265 35.99609375 61.6328125 C35.12109375 58.67578125 35.12109375 58.67578125 35.12109375 55.67578125 C34.46109375 55.67578125 33.80109375 55.67578125 33.12109375 55.67578125 C32.84136719 54.93714844 32.56164062 54.19851562 32.2734375 53.4375 C23.05971833 30.12175406 5.15437747 12.58786101 -17.44140625 1.92578125 C-31.62021428 -4.19501233 -44.64827822 -6.73867196 -60.06640625 -6.69921875 C-60.7542218 -6.69967194 -61.44203735 -6.70012512 -62.1506958 -6.70059204 C-72.32279593 -6.68087465 -81.2881753 -5.97591966 -90.87890625 -2.32421875 C-92.44107492 -1.86475738 -94.00354204 -1.40630863 -95.56640625 -0.94921875 C-105.02837408 2.36514286 -113.30614028 7.14477144 -120.87890625 13.67578125 C-121.70261719 14.37832031 -122.52632813 15.08085938 -123.375 15.8046875 C-135.82901368 26.5962876 -135.82901368 26.5962876 -143.87890625 40.67578125 C-144.53890625 40.67578125 -145.19890625 40.67578125 -145.87890625 40.67578125 C-146.06066406 41.26746094 -146.24242187 41.85914063 -146.4296875 42.46875 C-148.55471883 49.14897669 -148.55471883 49.14897669 -150.37890625 52.11328125 C-160.25424177 68.98364611 -159.57698901 99.10587804 -154.9284668 117.44995117 C-151.50961309 129.22096096 -145.92152665 141.10953029 -138.09375 150.5703125 C-136.46982796 153.3847626 -136.59838684 155.48320318 -136.87890625 158.67578125 C-137.87890625 159.67578125 -137.87890625 159.67578125 -140.56640625 160.23828125 C-144.44214525 159.58013689 -144.87879497 158.93664473 -147.19140625 155.92578125 C-148.74505898 153.72375376 -149.78366137 152.11251386 -150.359375 149.47265625 C-150.53082031 148.8796875 -150.70226562 148.28671875 -150.87890625 147.67578125 C-151.86890625 147.34578125 -152.85890625 147.01578125 -153.87890625 146.67578125 C-155.63185245 143.10246784 -157.09659951 139.58731497 -157.87890625 135.67578125 C-158.53890625 135.67578125 -159.19890625 135.67578125 -159.87890625 135.67578125 C-161.27889174 130.17129285 -162.65794791 124.66367563 -163.93359375 119.12890625 C-164.11116211 118.36054443 -164.28873047 117.59218262 -164.47167969 116.80053711 C-164.82438597 115.26820629 -165.17403409 113.73516809 -165.52050781 112.20141602 C-166.09319845 108.64435384 -166.09319845 108.64435384 -167.87890625 105.67578125 C-168.89265151 91.05128244 -169.06705771 76.48817138 -163.87890625 62.67578125 C-163.49835886 61.30999026 -163.13340804 59.93979114 -162.78125 58.56640625 C-155.67105614 31.08513796 -136.13779594 9.8322793 -112.05322266 -4.40332031 C-78.87644215 -23.21059885 -31.1301716 -23.67572916 0 0 Z " fill="#322D2E" transform="translate(308.87890625,54.32421875)"/>
<path d="M0 0 C1.670625 0.061875 1.670625 0.061875 3.375 0.125 C3.375 0.785 3.375 1.445 3.375 2.125 C4.21804688 2.37378906 5.06109375 2.62257813 5.9296875 2.87890625 C17.84464193 7.18828319 27.57939635 15.23858629 36.375 24.125 C37.50035156 25.21748047 37.50035156 25.21748047 38.6484375 26.33203125 C50.63872589 38.71280796 54.8565947 54.8166873 54.76318359 71.65136719 C54.77106903 73.43425392 54.77106903 73.43425392 54.77911377 75.25315857 C54.7922107 79.14286832 54.78361431 83.03216183 54.7734375 86.921875 C54.77410736 89.64325283 54.77837016 92.36462348 54.78213501 95.08599854 C54.78756853 100.77140745 54.78046145 106.45669883 54.76611328 112.14208984 C54.74975981 118.69742613 54.75510435 125.25248282 54.7715925 131.80781245 C54.78523874 137.46166003 54.7871127 143.11542384 54.77927649 148.76928258 C54.77462118 152.13518305 54.77391623 155.50095235 54.78388596 158.86684418 C54.79152134 162.61682458 54.7798674 166.36627027 54.76318359 170.11621094 C54.76925629 171.21873703 54.77532898 172.32126312 54.78158569 173.4571991 C54.72246209 180.64610128 54.10596248 186.66578086 49.5 192.5 C45.45261674 195.59505778 41.77826162 196.37502205 36.74658489 196.37109566 C35.05439706 196.3770688 35.05439706 196.3770688 33.32802361 196.38316262 C32.09359342 196.37733693 30.85916322 196.37151125 29.58732605 196.36550903 C27.6146874 196.36807231 27.6146874 196.36807231 25.60219747 196.37068737 C21.95354493 196.37516019 18.30500977 196.36715813 14.65637219 196.35713124 C10.72118136 196.34849811 6.7859972 196.35141681 2.85079956 196.35293579 C-3.96666343 196.35398473 -10.78408815 196.34770721 -17.60154152 196.33646011 C-27.45844157 196.32020927 -37.3153231 196.31499753 -47.17223509 196.31248413 C-63.16423167 196.30810638 -79.15620786 196.29479508 -95.14819336 196.27587891 C-110.68334857 196.25752219 -126.21849824 196.24336467 -141.75366211 196.23486328 C-142.71117407 196.23433783 -143.66868604 196.23381239 -144.65521351 196.23327102 C-149.45874718 196.23066095 -154.26228088 196.22813353 -159.06581461 196.22564721 C-198.91889069 196.2049122 -238.771944 196.16968448 -278.625 196.125 C-278.625 195.795 -278.625 195.465 -278.625 195.125 C-173.025 194.795 -67.425 194.465 41.375 194.125 C41.375 193.465 41.375 192.805 41.375 192.125 C42.035 191.795 42.695 191.465 43.375 191.125 C43.375 189.805 43.375 188.485 43.375 187.125 C-62.225 187.125 -167.825 187.125 -276.625 187.125 C-276.625 186.795 -276.625 186.465 -276.625 186.125 C-275.95288109 186.12364347 -275.28076218 186.12228694 -274.58827603 186.12088931 C-234.78987662 186.04031217 -194.99151296 185.94938771 -155.19316871 185.84494839 C-150.41898116 185.83242889 -145.64479338 185.81999622 -140.87060547 185.80761719 C-139.92011459 185.80515119 -138.96962372 185.8026852 -137.99033009 185.80014448 C-122.58195829 185.76037559 -107.17357913 185.72764657 -91.76518585 185.69750018 C-75.96532058 185.6664319 -60.16548672 185.62784249 -44.36565673 185.58220994 C-34.60926749 185.55427077 -24.85290133 185.53226138 -15.09648274 185.51773749 C-8.41429883 185.50722918 -1.73215952 185.48944296 4.94999085 185.46583296 C8.8104093 185.45241104 12.670765 185.44229431 16.53120804 185.44078636 C20.70821468 185.43907133 24.88501575 185.42208019 29.0619812 185.4034729 C30.29347708 185.40540763 31.52497295 185.40734237 32.79378688 185.40933573 C33.90548877 185.40187024 35.01719066 185.39440475 36.16258049 185.38671303 C37.61045411 185.38329554 37.61045411 185.38329554 39.0875777 185.37980902 C41.57226391 185.3440531 41.57226391 185.3440531 43.375 183.125 C43.68481661 180.87301043 43.68481661 180.87301043 43.64242554 178.22648621 C43.65095551 177.1907547 43.65948547 176.15502319 43.66827393 175.08790588 C43.66736755 173.9466777 43.66646118 172.80544952 43.66552734 171.62963867 C43.67224457 170.4310321 43.67896179 169.23242554 43.68588257 167.99749756 C43.70166629 164.70131653 43.70824048 161.40538751 43.70951414 158.10918593 C43.71093563 156.04567814 43.71520559 153.9821967 43.72050858 151.91869545 C43.73903777 144.70660353 43.74717718 137.49458562 43.74560547 130.2824707 C43.74440914 123.58425696 43.76540325 116.88636812 43.7970928 110.18823642 C43.82338049 104.42411876 43.8339673 98.66010619 43.83269465 92.89592916 C43.83218787 89.45978707 43.83770898 86.02393243 43.85905075 82.58785057 C43.87879473 78.73953359 43.87283684 74.89203322 43.86083984 71.04370117 C43.87207886 69.92473953 43.88331787 68.80577789 43.89489746 67.65290833 C43.80003772 55.5904621 40.35635736 44.96005088 33.375 35.125 C32.89675781 34.45082031 32.41851562 33.77664063 31.92578125 33.08203125 C22.43916108 21.11025114 7.87017733 14.45947099 -5.625 8.125 C-5.75 5.25 -5.75 5.25 -5.625 2.125 C-3.625 0.125 -3.625 0.125 0 0 Z " fill="#464143" transform="translate(367.625,266.875)"/>
<path d="M0 0 C106.26 0 212.52 0 322 0 C322.33 1.98 322.66 3.96 323 6 C322.34 6.33 321.68 6.66 321 7 C320.67 7.33 320.34 7.66 320 8 C318.28688169 8.09820765 316.5696764 8.12555591 314.85374546 8.12584114 C313.73133443 8.12844889 312.60892341 8.13105664 311.45249993 8.13374341 C310.20389166 8.13151268 308.95528339 8.12928196 307.6688385 8.12698364 C305.69731777 8.12932363 305.69731777 8.12932363 303.68596834 8.13171089 C300.02077358 8.13590883 296.35560466 8.13381143 292.69040978 8.13072467 C288.74420181 8.12847264 284.79799845 8.13194921 280.85179138 8.13470459 C273.11418083 8.13916353 265.37657995 8.13818524 257.63896901 8.13529195 C251.3527764 8.13303824 245.0665865 8.13272525 238.7803936 8.13381577 C237.88744022 8.133969 236.99448683 8.13412223 236.07447426 8.13428011 C234.26073325 8.13459982 232.44699225 8.13492403 230.63325124 8.1352527 C213.60428875 8.1381079 196.57533163 8.13481993 179.54637002 8.12945233 C164.92064047 8.12498502 150.29491886 8.12575955 135.66918945 8.13037109 C118.70483104 8.13571748 101.74047735 8.13783239 84.77611822 8.13475883 C82.96855287 8.13444027 81.16098752 8.13412589 79.35342216 8.13381577 C78.01922152 8.13358435 78.01922152 8.13358435 76.65806733 8.13334826 C70.37670441 8.13248324 64.09534447 8.13394568 57.81398201 8.13629532 C50.16292312 8.13909426 42.51187449 8.13835309 34.86081678 8.13301457 C30.95381723 8.13037872 27.04683481 8.12937054 23.13983536 8.13266373 C18.91259023 8.13617306 14.68538873 8.13199498 10.45814514 8.12698364 C8.58857882 8.13032973 8.58857882 8.13032973 6.68124348 8.13374341 C4.99371532 8.12983178 4.99371532 8.12983178 3.27209568 8.12584114 C2.29523762 8.12567879 1.31837957 8.12551644 0.31191975 8.12534916 C-2 8 -2 8 -4 7 C-4.6875 5.0625 -4.6875 5.0625 -5 3 C-4.67 2.34 -4.34 1.68 -4 1 C-2.02 1.495 -2.02 1.495 0 2 C0 1.34 0 0.68 0 0 Z " fill="#272224" transform="translate(89,454)"/>
<path d="M0 0 C0.66 0.99 1.32 1.98 2 3 C1.34 4.32 0.68 5.64 0 7 C-0.66 6.67 -1.32 6.34 -2 6 C-2.66 8.31 -3.32 10.62 -4 13 C-4.66 13 -5.32 13 -6 13 C-6 13.66 -6 14.32 -6 15 C-7.64302953 16.68997323 -9.31471312 18.35216394 -11 20 C-15.03137184 24.33954223 -17.07357589 27.9769134 -18.75 33.625 C-18.95753906 34.27984375 -19.16507813 34.9346875 -19.37890625 35.609375 C-20.94805038 40.61038919 -22.12399983 44.9132684 -22.13371277 50.16162109 C-22.13797775 51.20469421 -22.14224274 52.24776733 -22.14663696 53.32244873 C-22.14618378 54.46127502 -22.14573059 55.60010132 -22.14526367 56.7734375 C-22.14862228 57.97703918 -22.1519809 59.18064087 -22.15544128 60.42071533 C-22.16331201 63.71818184 -22.16661872 67.01558538 -22.16725707 70.31305695 C-22.16796823 72.37348195 -22.17010375 74.43390036 -22.17275429 76.49432373 C-22.18200152 83.68306904 -22.1860898 90.87179582 -22.18530273 98.06054688 C-22.18470154 104.76115152 -22.19526308 111.46167576 -22.2110464 118.16226006 C-22.22411853 123.9169242 -22.2294868 129.67156204 -22.22884732 135.42624092 C-22.22859231 138.86253818 -22.23144536 142.29876392 -22.24202538 145.73504639 C-22.25349789 149.56558382 -22.24896155 153.39601067 -22.24291992 157.2265625 C-22.25134918 158.93480194 -22.25134918 158.93480194 -22.25994873 160.67755127 C-22.25575424 161.72062439 -22.25155975 162.76369751 -22.24723816 163.83837891 C-22.24805531 165.1966832 -22.24805531 165.1966832 -22.24888897 166.58242798 C-21.98446886 169.150861 -21.2982349 170.78816436 -20 173 C-20.66 173 -21.32 173 -22 173 C-22 173.66 -22 174.32 -22 175 C-23.32 174.67 -24.64 174.34 -26 174 C-26 175.65 -26 177.3 -26 179 C-30.56030441 174.91972763 -32.71380662 171.78341039 -33.18279457 165.583498 C-33.26792599 162.56763061 -33.28159867 159.55833229 -33.2746582 156.54125977 C-33.27976913 155.39404953 -33.28488007 154.24683929 -33.29014587 153.06486511 C-33.30403934 149.27365897 -33.30308425 145.48263483 -33.30078125 141.69140625 C-33.30467029 139.04548577 -33.30900539 136.39956591 -33.31376648 133.75364685 C-33.32197448 128.20301714 -33.32107708 122.65243833 -33.31567383 117.10180664 C-33.30965748 110.72169916 -33.32188741 104.34181353 -33.3432439 97.96174389 C-33.36097733 92.45823516 -33.36684227 86.95479622 -33.36360615 81.45126003 C-33.36180902 78.17612671 -33.36561879 74.90118407 -33.37832069 71.62607002 C-33.49391945 37.62949764 -33.49391945 37.62949764 -27 28 C-26.505 27.525625 -26.01 27.05125 -25.5 26.5625 C-23.36967644 24.34341296 -22.29168905 21.76790511 -21 19 C-20.34 19 -19.68 19 -19 19 C-19 19.66 -19 20.32 -19 21 C-18.34 21 -17.68 21 -17 21 C-16.67 20.01 -16.34 19.02 -16 18 C-15.01 17.34 -14.02 16.68 -13 16 C-11.91701133 14.06295693 -11.91701133 14.06295693 -11.625 12 C-11 10 -11 10 -8 8 C-7.54625 7.195625 -7.0925 6.39125 -6.625 5.5625 C-4.77287538 2.64184195 -3.0411417 1.56166736 0 0 Z " fill="#322D30" transform="translate(111,281)"/>
<path d="M0 0 C7.86344688 5.85903885 12.28385126 12.29715902 14 22 C14.83278546 30.84580655 14.26635154 38.1472467 10 46 C9.5875 46.76957031 9.175 47.53914063 8.75 48.33203125 C4.47901362 55.45438638 -2.21499931 61.84193368 -10 65 C-11.99110401 65.38290462 -13.99100513 65.72604615 -16 66 C-16.10957031 66.89203125 -16.21914063 67.7840625 -16.33203125 68.703125 C-16.56986328 70.45882812 -16.56986328 70.45882812 -16.8125 72.25 C-16.96332031 73.41015625 -17.11414063 74.5703125 -17.26953125 75.765625 C-17.99637443 78.98394666 -18.81661025 80.58331655 -21 83 C-23.375 82.6875 -23.375 82.6875 -26 82 C-29.11608679 77.32586982 -28.59440465 72.47287212 -28 67 C-26.25 63.5 -26.25 63.5 -24 61 C-23.13375 59.9171875 -23.13375 59.9171875 -22.25 58.8125 C-20.12660083 57.101984 -18.76754918 56.44757588 -16.25 55.5625 C-6.97451755 52.286772 -2.35837276 47.89771602 2 39 C3.14693757 35.55918729 3.16819738 32.81253288 3.1875 29.1875 C3.20167969 27.98480469 3.21585937 26.78210938 3.23046875 25.54296875 C2.85866545 19.82728081 1.28439003 14.12731017 -2.98828125 10.1484375 C-3.75527344 9.56320312 -4.52226562 8.97796875 -5.3125 8.375 C-6.07175781 7.78460938 -6.83101563 7.19421875 -7.61328125 6.5859375 C-14.18972862 2.21599047 -20.33527321 2.61542211 -28 3 C-28.90878906 3.04511719 -29.81757813 3.09023438 -30.75390625 3.13671875 C-37.27540069 3.92256393 -40.86125822 6.82699062 -45.22265625 11.640625 C-47.54724493 14.72645261 -48.39782423 17.18622012 -49 21 C-49.32457743 22.75164511 -49.6584152 24.50159188 -50 26.25 C-50.144375 27.08015625 -50.28875 27.9103125 -50.4375 28.765625 C-51 31 -51 31 -53 34 C-55.5 34.375 -55.5 34.375 -58 34 C-60.74777709 29.87833436 -60.58220357 26.8395672 -60 22 C-56.83829963 9.33523432 -50.02432679 1.72592168 -39 -5 C-25.9046234 -11.78599238 -11.40869248 -8.1214421 0 0 Z " fill="#353032" transform="translate(273,297)"/>
<path d="M0 0 C-2.3107221 7.5273523 -2.3107221 7.5273523 -5.1875 9.5 C-5.785625 9.665 -6.38375 9.83 -7 10 C-6.505 11.98 -6.505 11.98 -6 14 C-6.66 14 -7.32 14 -8 14 C-7.979375 14.94875 -7.95875 15.8975 -7.9375 16.875 C-8.81724152 22.94766024 -13.87890948 26.83526707 -18 31 C-18.77988281 31.84046875 -19.55976563 32.6809375 -20.36328125 33.546875 C-27.67492004 41.25341409 -37.85162405 51.39190677 -49 52 C-51.5 50.1875 -51.5 50.1875 -53 48 C-53 47.67 -53 47.34 -53 47 C-52.21625 46.938125 -51.4325 46.87625 -50.625 46.8125 C-49.75875 46.544375 -48.8925 46.27625 -48 46 C-47.69835937 45.21496094 -47.39671875 44.42992187 -47.0859375 43.62109375 C-45.81062513 40.54291173 -44.8367537 39.89126464 -42 38.25 C-31.91991991 31.917642 -22.61146649 22.91719973 -16 13 C-15.01 13 -14.02 13 -13 13 C-12.896875 12.38125 -12.79375 11.7625 -12.6875 11.125 C-12 9 -12 9 -9 7 C-8.30899447 5.00827818 -7.64097297 3.00838196 -7 1 C-4.53721199 -0.231394 -2.7204945 -0.07159196 0 0 Z " fill="#312A2C" transform="translate(347,189)"/>
<path d="M0 0 C-2.06756277 2.7972908 -3.14440371 3.02692273 -6.6875 3.6875 C-7.780625 3.790625 -8.87375 3.89375 -10 4 C-10 4.99 -10 5.98 -10 7 C-7.69 7.66 -5.38 8.32 -3 9 C-3 8.34 -3 7.68 -3 7 C-0.98177083 6.54427083 1.03645833 6.08854167 3.0546875 5.6328125 C5.20719964 5.09525572 5.20719964 5.09525572 7 3 C9.8203125 2.8046875 9.8203125 2.8046875 13.125 2.875 C14.22070312 2.89304687 15.31640625 2.91109375 16.4453125 2.9296875 C17.70988281 2.96449219 17.70988281 2.96449219 19 3 C19 3.33 19 3.66 19 4 C17.9378125 4.24234375 16.875625 4.4846875 15.78125 4.734375 C6.13286267 6.93402933 6.13286267 6.93402933 -2.8671875 10.921875 C-8.49776432 13.76810065 -15.17746738 16.25954252 -21.359375 17.45703125 C-22.17148438 17.72580078 -22.17148438 17.72580078 -23 18 C-23.495 19.485 -23.495 19.485 -24 21 C-26.23046875 22.48828125 -26.23046875 22.48828125 -29 24 C-29.88300781 24.52980469 -30.76601562 25.05960937 -31.67578125 25.60546875 C-34.1171875 27.0703125 -36.55859375 28.53515625 -39 30 C-38.67 28.35 -38.34 26.7 -38 25 C-37.34 25 -36.68 25 -36 25 C-35.67 23.68 -35.34 22.36 -35 21 C-38.87739675 21.80222002 -41.27478482 22.92668153 -43.5625 26.3125 C-44.910038 28.83181018 -45.95248745 31.34630155 -47 34 C-49 37 -49 37 -52 38 C-52.33 38.66 -52.66 39.32 -53 40 C-53.66 40 -54.32 40 -55 40 C-55 39.34 -55 38.68 -55 38 C-55.66 38 -56.32 38 -57 38 C-57.28875 38.928125 -57.5775 39.85625 -57.875 40.8125 C-59 44 -59 44 -61 47 C-61.66 47 -62.32 47 -63 47 C-55.85056476 27.69652486 -36.73121359 14.59767175 -19.05078125 5.7421875 C-17 5 -17 5 -13 5 C-13 4.34 -13 3.68 -13 3 C-11.21189234 2.30329584 -9.41937948 1.61788811 -7.625 0.9375 C-6.62726563 0.55464844 -5.62953125 0.17179687 -4.6015625 -0.22265625 C-2 -1 -2 -1 0 0 Z " fill="#332D2F" transform="translate(147,262)"/>
<path d="M0 0 C1.670625 0.061875 1.670625 0.061875 3.375 0.125 C3.375 0.785 3.375 1.445 3.375 2.125 C4.21804688 2.37378906 5.06109375 2.62257813 5.9296875 2.87890625 C21.03869808 8.34350305 34.84965365 20.37784532 44.375 33.125 C44.375 33.785 44.375 34.445 44.375 35.125 C40.5 34.25 40.5 34.25 39.375 33.125 C39.045 32.465 38.715 31.805 38.375 31.125 C37.715 31.125 37.055 31.125 36.375 31.125 C36.375 33.435 36.375 35.745 36.375 38.125 C34.01492945 35.85570139 31.98743372 33.61504437 30 31 C20.71337959 20.18871057 7.01053751 14.05596659 -5.625 8.125 C-5.75 5.25 -5.75 5.25 -5.625 2.125 C-3.625 0.125 -3.625 0.125 0 0 Z " fill="#393436" transform="translate(367.625,266.875)"/>
<path d="M0 0 C0.33 0 0.66 0 1 0 C1.18433594 1.00675781 1.36867187 2.01351562 1.55859375 3.05078125 C4.50972775 17.81711158 10.09579369 32.18380507 19.78515625 43.89453125 C21.40907829 46.70898135 21.28051941 48.80742193 21 52 C20 53 20 53 17.3125 53.5625 C13.436761 52.90435564 13.00011128 52.26086348 10.6875 49.25 C9.13384727 47.04797251 8.09524488 45.43673261 7.51953125 42.796875 C7.34808594 42.20390625 7.17664063 41.6109375 7 41 C6.01 40.67 5.02 40.34 4 40 C2.2470538 36.42668659 0.78230674 32.91153372 0 29 C-0.66 29 -1.32 29 -2 29 C-2.48220263 27.12577848 -2.96061833 25.25058246 -3.4375 23.375 C-3.70433594 22.33085937 -3.97117188 21.28671875 -4.24609375 20.2109375 C-4.96452539 17.15108876 -5.51976716 14.1051949 -6 11 C-5.01 10.34 -4.02 9.68 -3 9 C-2.67 9.33 -2.34 9.66 -2 10 C-1.34 6.7 -0.68 3.4 0 0 Z " fill="#363133" transform="translate(151,161)"/>
<path d="M0 0 C0.66 0.33 1.32 0.66 2 1 C1.01 1.99 0.02 2.98 -1 4 C0.98 4 2.96 4 5 4 C5 4.66 5 5.32 5 6 C5.58491211 5.99476318 6.16982422 5.98952637 6.77246094 5.98413086 C9.43162963 5.96329842 12.09078111 5.95031993 14.75 5.9375 C16.13058594 5.92493164 16.13058594 5.92493164 17.5390625 5.91210938 C18.42851562 5.90888672 19.31796875 5.90566406 20.234375 5.90234375 C21.05131836 5.89710693 21.86826172 5.89187012 22.70996094 5.88647461 C24.94697948 5.99737158 26.84134221 6.43579267 29 7 C29.99 7 30.98 7 32 7 C32 8.32 32 9.64 32 11 C26.25 9.125 26.25 9.125 24 8 C10.54577411 7.04536125 10.54577411 7.04536125 -1.546875 11.890625 C-6.13719992 16.18857254 -8.99730744 19.64961377 -10 26 C-10.32457743 27.75164511 -10.6584152 29.50159188 -11 31.25 C-11.144375 32.08015625 -11.28875 32.9103125 -11.4375 33.765625 C-12 36 -12 36 -14 39 C-16.5 39.375 -16.5 39.375 -19 39 C-21.74777709 34.87833436 -21.58220357 31.8395672 -21 27 C-17.75721244 14.01042483 -10.89510303 7.28925043 0 0 Z " fill="#2E282A" transform="translate(234,292)"/>
<path d="M0 0 C-0.33 1.32 -0.66 2.64 -1 4 C-2.32 4.33 -3.64 4.66 -5 5 C-5 5.66 -5 6.32 -5 7 C-2.36 7.33 0.28 7.66 3 8 C-0.23126601 10.65594304 -3.54113733 12.2837629 -7.375 13.9375 C-8.47585938 14.42089844 -9.57671875 14.90429688 -10.7109375 15.40234375 C-22.88463313 20.13031683 -34.46336367 21.84573465 -47.375 22.75 C-48.97796246 22.87505381 -50.58082844 23.00135053 -52.18359375 23.12890625 C-59.13508612 23.66494006 -66.02411742 24.06441979 -73 24 C-70.60128301 21.60128301 -70.02001067 21.7438081 -66.74609375 21.69140625 C-65.4631543 21.65370117 -65.4631543 21.65370117 -64.15429688 21.61523438 C-62.37050501 21.58061009 -60.5866461 21.54925468 -58.80273438 21.52148438 C-53.42368747 21.35702433 -48.96386832 20.5998314 -43.93139648 18.66088867 C-40.03124228 17.326327 -36.82711361 17.72429546 -33 19 C-33 18.34 -33 17.68 -33 17 C-33.66 16.67 -34.32 16.34 -35 16 C-34.34 16 -33.68 16 -33 16 C-32.67 15.01 -32.34 14.02 -32 13 C-35.3 13 -38.6 13 -42 13 C-42 12.67 -42 12.34 -42 12 C-40.94683594 11.84144531 -39.89367187 11.68289062 -38.80859375 11.51953125 C-26.72443238 9.60304446 -11.04922917 0 0 0 Z " fill="#373133" transform="translate(300,232)"/>
<path d="M0 0 C-1.875 4.75 -1.875 4.75 -3 7 C-5.31 7 -7.62 7 -10 7 C-10 7.66 -10 8.32 -10 9 C-15.13726807 10.27860894 -19.68915091 11 -25 11 C-25.66 11.66 -26.32 12.32 -27 13 C-29.65537372 13.56520003 -32.29144713 13.73788198 -35 14 C-35 14.66 -35 15.32 -35 16 C-37.3431213 15.74438677 -39.67843403 15.40729228 -42 15 C-42.33 14.34 -42.66 13.68 -43 13 C-42 11 -42 11 -40.29296875 10.25390625 C-38.89714687 9.79553803 -37.50131367 9.3372043 -36.10546875 8.87890625 C-33.93389106 8.08010446 -33.93389106 8.08010446 -32.1171875 6.5390625 C-25.38161458 1.64272351 -16.34739231 0.51208677 -8.2421875 0.95703125 C-5.30821613 1.01325718 -2.98247139 0 0 0 Z " fill="#2B2627" transform="translate(179,255)"/>
<path d="M0 0 C2.4375 0.8125 2.4375 0.8125 4.4375 2.8125 C4.69628906 5.30273438 4.69628906 5.30273438 4.703125 8.40625 C4.70570313 9.51871094 4.70828125 10.63117188 4.7109375 11.77734375 C4.70320312 12.94394531 4.69546875 14.11054688 4.6875 15.3125 C4.69523438 16.47910156 4.70296875 17.64570313 4.7109375 18.84765625 C4.70835937 19.96011719 4.70578125 21.07257813 4.703125 22.21875 C4.70086914 23.24291016 4.69861328 24.26707031 4.69628906 25.32226562 C4.4375 27.8125 4.4375 27.8125 2.4375 29.8125 C-0.5625 30.125 -0.5625 30.125 -3.5625 29.8125 C-6.67746916 25.14004625 -5.89100857 20.30664246 -5.875 14.8125 C-5.89111328 13.70648438 -5.90722656 12.60046875 -5.92382812 11.4609375 C-5.92447266 10.40132813 -5.92511719 9.34171875 -5.92578125 8.25 C-5.92876221 7.27933594 -5.93174316 6.30867188 -5.93481445 5.30859375 C-5.5625 2.8125 -5.5625 2.8125 -4.19995117 0.9609375 C-2.5625 -0.1875 -2.5625 -0.1875 0 0 Z " fill="#322E30" transform="translate(250.5625,391.1875)"/>
<path d="M0 0 C0.33 1.32 0.66 2.64 1 4 C1.61875 4.144375 2.2375 4.28875 2.875 4.4375 C5 5 5 5 7 6 C7 5.34 7 4.68 7 4 C6.34 3.67 5.68 3.34 5 3 C6.32 2.34 7.64 1.68 9 1 C8.04296522 8.38605667 6.95870791 15.14117712 4 22 C3.34 22 2.68 22 2 22 C1.79503906 22.69867188 1.59007812 23.39734375 1.37890625 24.1171875 C1.10949219 25.02726562 0.84007812 25.93734375 0.5625 26.875 C0.29566406 27.77992188 0.02882813 28.68484375 -0.24609375 29.6171875 C-1 32 -1 32 -2 34 C-2.66 34 -3.32 34 -4 34 C-4.268125 34.763125 -4.53625 35.52625 -4.8125 36.3125 C-5.94424112 38.87380884 -6.91223401 40.19692938 -9 42 C-9 39 -9 39 -8 37 C-7.34 37 -6.68 37 -6 37 C-6.33 35.68 -6.66 34.36 -7 33 C-6.34 33 -5.68 33 -5 33 C-4.67 32.01 -4.34 31.02 -4 30 C-3.01577854 27.99218823 -2.01765927 25.99107248 -1 24 C-2.98 24 -4.96 24 -7 24 C-7.268125 25.134375 -7.53625 26.26875 -7.8125 27.4375 C-8.204375 28.613125 -8.59625 29.78875 -9 31 C-9.99 31.33 -10.98 31.66 -12 32 C-12.73323796 34.01508358 -12.73323796 34.01508358 -13 36 C-13.66 36 -14.32 36 -15 36 C-13.61545599 32.18133829 -11.79859128 28.75741275 -9.82592773 25.22436523 C-5.24854047 16.98432371 -2.09370994 9.23867812 0 0 Z " fill="#2F2B2C" transform="translate(347,166)"/>
<path d="M0 0 C6.18761573 6.01573751 10.71590524 10.69310995 11.1953125 19.6484375 C11.17210937 20.87820313 11.14890625 22.10796875 11.125 23.375 C11.10695313 24.62023437 11.08890625 25.86546875 11.0703125 27.1484375 C11.04710937 28.08945312 11.02390625 29.03046875 11 30 C9.35 30.66 7.7 31.32 6 32 C3.22957891 29.22957891 3.60203894 27.23466195 3.375 23.375 C3.26285156 21.59222656 3.26285156 21.59222656 3.1484375 19.7734375 C3.09945313 18.85820312 3.05046875 17.94296875 3 17 C2.34 17 1.68 17 1 17 C0.46375 15.948125 -0.0725 14.89625 -0.625 13.8125 C-2.18908276 11.0331587 -3.75055275 9.1657355 -6.25 7.1875 C-7.1575 6.465625 -8.065 5.74375 -9 5 C-9 4.34 -9 3.68 -9 3 C-6.03 3 -3.06 3 0 3 C0 2.01 0 1.02 0 0 Z " fill="#302C2D" transform="translate(275,299)"/>
<path d="M0 0 C0.33 0.66 0.66 1.32 1 2 C0.4946875 2.56460938 -0.010625 3.12921875 -0.53125 3.7109375 C-2.32378816 6.5046273 -2.12369922 7.43373899 -1.5 10.625 C-0.43707666 18.44672933 -3.04023462 24.40039103 -7 31 C-10.62284352 39.83045801 -10.96822696 49.2284562 -11.6875 58.625 C-11.81737329 60.21752864 -11.94822513 61.8099778 -12.08007812 63.40234375 C-12.39800244 67.26740571 -12.70268414 71.13330043 -13 75 C-13.33 75 -13.66 75 -14 75 C-14.3308496 60.47937858 -13.74311162 46.01686538 -10.26953125 31.84765625 C-9.82551038 29.77370575 -9.82551038 29.77370575 -11 27 C-11.99 27.33 -12.98 27.66 -14 28 C-15 25 -15 25 -13.84765625 22.03125 C-9.83578797 14.09530049 -5.51258027 7.01601125 0 0 Z " fill="#443F41" transform="translate(164,78)"/>
<path d="M0 0 C-2.06756277 2.7972908 -3.14440371 3.02692273 -6.6875 3.6875 C-7.780625 3.790625 -8.87375 3.89375 -10 4 C-10 4.99 -10 5.98 -10 7 C-7.69 7.66 -5.38 8.32 -3 9 C-3 8.34 -3 7.68 -3 7 C0.02734375 6.31640625 0.02734375 6.31640625 3.0546875 5.6328125 C5.20719964 5.09525572 5.20719964 5.09525572 7 3 C9.8203125 2.8046875 9.8203125 2.8046875 13.125 2.875 C14.22070312 2.89304687 15.31640625 2.91109375 16.4453125 2.9296875 C17.70988281 2.96449219 17.70988281 2.96449219 19 3 C19 3.33 19 3.66 19 4 C17.40671875 4.36351562 17.40671875 4.36351562 15.78125 4.734375 C6.16942158 6.9253485 6.16942158 6.9253485 -2.78515625 10.91796875 C-8.23385422 13.57985471 -14.2308857 15.16710431 -20 17 C-19.38550003 13.66177043 -18.65439171 10.97790508 -17 8 C-18.98 8.33 -20.96 8.66 -23 9 C-19.79663178 6.16625119 -17.21912747 5.4794463 -13 5 C-13 4.34 -13 3.68 -13 3 C-11.21189234 2.30329584 -9.41937948 1.61788811 -7.625 0.9375 C-6.62726563 0.55464844 -5.62953125 0.17179687 -4.6015625 -0.22265625 C-2 -1 -2 -1 0 0 Z " fill="#433D3F" transform="translate(147,262)"/>
<path d="M0 0 C-2.3107221 7.5273523 -2.3107221 7.5273523 -5.1875 9.5 C-5.785625 9.665 -6.38375 9.83 -7 10 C-6.67 11.32 -6.34 12.64 -6 14 C-6.66 14 -7.32 14 -8 14 C-8.12375 15.093125 -8.2475 16.18625 -8.375 17.3125 C-9 21 -9 21 -11 24 C-14.125 24.1875 -14.125 24.1875 -17 24 C-18.14947895 20.44706507 -18.0868937 19.20023331 -16.5625 15.6875 C-16.046875 14.800625 -15.53125 13.91375 -15 13 C-14.34 13 -13.68 13 -13 13 C-12.8453125 12.071875 -12.8453125 12.071875 -12.6875 11.125 C-12 9 -12 9 -9 7 C-8.30899447 5.00827818 -7.64097297 3.00838196 -7 1 C-4.53721199 -0.231394 -2.7204945 -0.07159196 0 0 Z " fill="#272223" transform="translate(347,189)"/>
<path d="M0 0 C0.33 0 0.66 0 1 0 C2.34136367 0.65035814 3.67532254 1.3162955 5 2 C2.95324169 4.57908053 1.25164052 6.66620902 -2.01953125 7.53857422 C-4.35533507 7.78861977 -6.65141065 7.89365458 -9 7.9375 C-9.7940625 7.97939453 -10.588125 8.02128906 -11.40625 8.06445312 C-15.75502637 8.22753224 -19.04202678 8.05080467 -23 6 C-21.5190777 3.0381554 -20.0130261 2.41427756 -17 1 C-11.37852982 -0.00825015 -5.69633986 -0.12119872 0 0 Z " fill="#252122" transform="translate(203,251)"/>
<path d="M0 0 C-0.33 0.66 -0.66 1.32 -1 2 C-1.99 2 -2.98 2 -4 2 C-4.33 2.99 -4.66 3.98 -5 5 C-1.9317362 5.89749822 0.79269976 6.11711768 3.984375 6.09765625 C4.91894531 6.09443359 5.85351562 6.09121094 6.81640625 6.08789062 C8.26853516 6.07532227 8.26853516 6.07532227 9.75 6.0625 C11.22533203 6.05573242 11.22533203 6.05573242 12.73046875 6.04882812 C15.15370791 6.03706483 17.57682273 6.02062684 20 6 C20 6.33 20 6.66 20 7 C18.76080811 7.16604736 18.76080811 7.16604736 17.49658203 7.33544922 C14.38376374 7.75412219 11.27135415 8.17569088 8.15917969 8.59912109 C6.16891453 8.86904424 4.17821126 9.13573063 2.1875 9.40234375 C-4.932212 10.37321357 -11.97940148 11.46172082 -19 13 C-18.34 12.67 -17.68 12.34 -17 12 C-17 11.34 -17 10.68 -17 10 C-14.69 10 -12.38 10 -10 10 C-9.690625 9.21625 -9.38125 8.4325 -9.0625 7.625 C-8 5 -8 5 -7 3 C-8.216875 3.350625 -9.43375 3.70125 -10.6875 4.0625 C-14.12086896 4.93456352 -16.55349859 5.07703169 -20 4 C-13.93775593 0.67554357 -6.86061613 -0.36108506 0 0 Z " fill="#504B4C" transform="translate(186,252)"/>
<path d="M0 0 C0.66 0.33 1.32 0.66 2 1 C0.515 2.485 0.515 2.485 -1 4 C0.98 4 2.96 4 5 4 C5 4.66 5 5.32 5 6 C5.58491211 5.99476318 6.16982422 5.98952637 6.77246094 5.98413086 C9.43162963 5.96329842 12.09078111 5.95031993 14.75 5.9375 C16.13058594 5.92493164 16.13058594 5.92493164 17.5390625 5.91210938 C18.87324219 5.90727539 18.87324219 5.90727539 20.234375 5.90234375 C21.05131836 5.89710693 21.86826172 5.89187012 22.70996094 5.88647461 C24.94697948 5.99737158 26.84134221 6.43579267 29 7 C29.99 7 30.98 7 32 7 C32 8.32 32 9.64 32 11 C26.25 9.125 26.25 9.125 24 8 C15.37933063 7.46120816 5.42333058 7.05111295 -2 12 C-2.66 10.35 -3.32 8.7 -4 7 C-4.5775 7.515625 -5.155 8.03125 -5.75 8.5625 C-8 10 -8 10 -10.140625 9.58984375 C-10.75421875 9.39519531 -11.3678125 9.20054687 -12 9 C-10.37680325 7.68527053 -8.751385 6.37328338 -7.125 5.0625 C-6.22007812 4.33160156 -5.31515625 3.60070312 -4.3828125 2.84765625 C-2 1 -2 1 0 0 Z " fill="#3D3739" transform="translate(234,292)"/>
<path d="M0 0 C1.670625 0.061875 1.670625 0.061875 3.375 0.125 C3.375 0.785 3.375 1.445 3.375 2.125 C5.355 2.785 7.335 3.445 9.375 4.125 C7.725 5.775 6.075 7.425 4.375 9.125 C5.035 10.445 5.695 11.765 6.375 13.125 C2.14070244 11.81438409 -1.69907404 10.18143741 -5.625 8.125 C-5.75 5.25 -5.75 5.25 -5.625 2.125 C-3.625 0.125 -3.625 0.125 0 0 Z " fill="#383235" transform="translate(367.625,266.875)"/>
<path d="M0 0 C0.66 0.66 1.32 1.32 2 2 C1.38125 2.9075 0.7625 3.815 0.125 4.75 C-2.01166428 7.7168762 -2.01166428 7.7168762 -2.75 10.25 C-4.63573392 12.89002748 -6.92728907 13.29839604 -10.0234375 13.95703125 C-12 14 -12 14 -14.5 12.1875 C-16 10 -16 10 -16 9 C-15.21625 8.938125 -14.4325 8.87625 -13.625 8.8125 C-12.325625 8.4103125 -12.325625 8.4103125 -11 8 C-10.7525 7.21625 -10.505 6.4325 -10.25 5.625 C-9 3 -9 3 -6.8828125 2.00390625 C-4.60165634 1.26128688 -2.32540653 0.58852881 0 0 Z " fill="#30282B" transform="translate(310,227)"/>
<path d="M0 0 C0.66 0.33 1.32 0.66 2 1 C2.33 1.99 2.66 2.98 3 4 C3.66 4.33 4.32 4.66 5 5 C4.88557539 6.60495567 4.75805306 8.20898119 4.625 9.8125 C4.55539062 10.70582031 4.48578125 11.59914062 4.4140625 12.51953125 C4 15 4 15 2 18 C2 18.66 2 19.32 2 20 C0.02 19.34 -1.96 18.68 -4 18 C-3.68010106 14.99839504 -3.34275144 11.99907514 -3 9 C-2.855625 7.700625 -2.71125 6.40125 -2.5625 5.0625 C-2 2 -2 2 0 0 Z " fill="#252123" transform="translate(352,152)"/>
<path d="M0 0 C4.8175 1.5375 4.8175 1.5375 6.9375 2.9375 C7.546875 5.1015625 7.546875 5.1015625 7.6875 7.5625 C7.74421875 8.37976562 7.8009375 9.19703125 7.859375 10.0390625 C7.89804687 10.97878906 7.89804687 10.97878906 7.9375 11.9375 C6.9475 11.9375 5.9575 11.9375 4.9375 11.9375 C4.6075 11.2775 4.2775 10.6175 3.9375 9.9375 C1.40175873 9.33375208 -1.13705172 8.97968874 -3.71484375 8.59765625 C-6.0625 7.9375 -6.0625 7.9375 -8.0625 4.9375 C-3.90195179 -0.07963167 -3.90195179 -0.07963167 0 0 Z " fill="#302A2C" transform="translate(295.0625,47.0625)"/>
<path d="M0 0 C0 0.66 0 1.32 0 2 C-3.02734375 2.24414062 -3.02734375 2.24414062 -6.0546875 2.48828125 C-8.39519216 2.87393036 -8.39519216 2.87393036 -10 6 C-10.66 6 -11.32 6 -12 6 C-12 6.66 -12 7.32 -12 8 C-7.05 8 -2.1 8 3 8 C-0.04330779 10.02887186 -2.10651256 10.66356371 -5.625 11.5 C-6.68460938 11.75394531 -7.74421875 12.00789063 -8.8359375 12.26953125 C-12.88574489 13.20448678 -16.93789389 14.11987701 -21 15 C-18.8092961 12.70886268 -16.90542812 11.3024333 -14 10 C-16.35968744 7.90250005 -17.54616994 7.03094296 -20.75 6.8125 C-21.4925 6.874375 -22.235 6.93625 -23 7 C-20.20213856 4.20213856 -16.88195813 3.5066951 -13.1875 2.375 C-12.47529297 2.14554688 -11.76308594 1.91609375 -11.02929688 1.6796875 C-7.24793339 0.50435158 -4.00837511 -0.29925001 0 0 Z " fill="#494446" transform="translate(230,39)"/>
<path d="M0 0 C-0.33 0.61875 -0.66 1.2375 -1 1.875 C-2.14193235 3.91018344 -2.14193235 3.91018344 -2 6 C-6.53125 7.1328125 -6.53125 7.1328125 -8.875 6.46875 C-11.47593932 5.89501339 -13.17904397 6.29476099 -15.75 6.9375 C-16.54921875 7.13214844 -17.3484375 7.32679688 -18.171875 7.52734375 C-18.77515625 7.68332031 -19.3784375 7.83929688 -20 8 C-20.33 7.01 -20.66 6.02 -21 5 C-17.21304982 1.5179915 -14.45591472 0.35911516 -9.375 -0.3125 C-8.24835938 -0.47363281 -7.12171875 -0.63476562 -5.9609375 -0.80078125 C-3 -1 -3 -1 0 0 Z " fill="#242223" transform="translate(269,245)"/>
<path d="M0 0 C2 1 2 1 2 1 Z M0 1 C-0.72079629 4.74814073 -1.89333036 7.80601699 -4 11 C-7.13427277 12.72770364 -10.39620676 14 -14 14 C-13.75 10.625 -13.75 10.625 -13 7 C-11.125 5.625 -11.125 5.625 -9 5 C-8.01 4.67 -7.02 4.34 -6 4 C-6 3.34 -6 2.68 -6 2 C-3.92446352 1.4465236 -2.15634036 1 0 1 Z " fill="#272123" transform="translate(130,269)"/>
<path d="M0 0 C0 0.66 0 1.32 0 2 C0.66 2.33 1.32 2.66 2 3 C2.66 3.66 3.32 4.32 4 5 C4.99 5.33 5.98 5.66 7 6 C3.37 7.98 -0.26 9.96 -4 12 C-4 10.02 -4 8.04 -4 6 C-6.91517292 7.07401108 -8.77810176 7.77810176 -11 10 C-13.125 9.625 -13.125 9.625 -15 9 C-12.87885041 7.49428254 -10.75346385 5.99531321 -8.625 4.5 C-8.02171875 4.07074219 -7.4184375 3.64148437 -6.796875 3.19921875 C-2.2265625 0 -2.2265625 0 0 0 Z " fill="#383133" transform="translate(197,51)"/>
<path d="M0 0 C0.33 0 0.66 0 1 0 C0.99476318 0.97348389 0.98952637 1.94696777 0.98413086 2.94995117 C0.96597883 6.574779 0.95453077 10.19960283 0.94506836 13.82446289 C0.94005144 15.39087602 0.93323638 16.9572845 0.92456055 18.52368164 C0.91237906 20.78012239 0.90674519 23.03650102 0.90234375 25.29296875 C0.89718246 25.98899704 0.89202118 26.68502533 0.88670349 27.40214539 C0.88628349 31.0738415 1.17690302 34.42467247 2 38 C2.06371368 39.60303627 2.08644214 41.20837672 2.0625 42.8125 C2.05347656 43.60269531 2.04445312 44.39289063 2.03515625 45.20703125 C2.01775391 46.09455078 2.01775391 46.09455078 2 47 C1.67 47 1.34 47 1 47 C0.86722656 46.28972656 0.73445312 45.57945312 0.59765625 44.84765625 C0.33275391 43.46900391 0.33275391 43.46900391 0.0625 42.0625 C-0.11152344 41.14597656 -0.28554687 40.22945312 -0.46484375 39.28515625 C-0.77714988 37.04710156 -0.77714988 37.04710156 -2 36 C-2.21937909 31.97596061 -2.18578822 27.94846327 -2.18530273 23.91894531 C-2.18746874 21.90407538 -2.20556009 19.88977143 -2.22460938 17.875 C-2.22750977 15.95300781 -2.22750977 15.95300781 -2.23046875 13.9921875 C-2.23457764 12.82026855 -2.23868652 11.64834961 -2.24291992 10.44091797 C-1.97529048 6.64999402 -1.16020483 3.60563037 0 0 Z " fill="#625B5F" transform="translate(143,124)"/>
<path d="M0 0 C5.57277287 0.34119018 10.58658253 1.68816195 15.875 3.4375 C16.87478882 3.7636731 16.87478882 3.7636731 17.89477539 4.09643555 C20.81397052 5.08940222 22.7913339 5.7913339 25 8 C24.34 8 23.68 8 23 8 C22.67 8.66 22.34 9.32 22 10 C19.3255814 13.8372093 19.3255814 13.8372093 17 15 C14.93560025 14.43100339 12.89548723 13.77181998 10.875 13.0625 C9.77929688 12.68222656 8.68359375 12.30195312 7.5546875 11.91015625 C6.71164062 11.60980469 5.86859375 11.30945312 5 11 C9.29727397 9.69339643 12.60215865 10.3403238 17 11 C17 9.68 17 8.36 17 7 C17 6.34 17 5.68 17 5 C16.01 5.33 15.02 5.66 14 6 C12.16796875 5.51171875 12.16796875 5.51171875 10.1875 4.6875 C9.49011719 4.40648437 8.79273438 4.12546875 8.07421875 3.8359375 C7.38972656 3.56007812 6.70523437 3.28421875 6 3 C4.00359361 2.32264783 2.00495586 1.65161065 0 1 C0 0.67 0 0.34 0 0 Z " fill="#504A4C" transform="translate(269,39)"/>
<path d="M0 0 C0 0.66 0 1.32 0 2 C-0.99 2.33 -1.98 2.66 -3 3 C-3.73323796 5.01508358 -3.73323796 5.01508358 -4 7 C-4.66 7 -5.32 7 -6 7 C-6 7.99 -6 8.98 -6 10 C-4.02 10 -2.04 10 0 10 C-2 12 -2 12 -4.625 12.125 C-5.40875 12.08375 -6.1925 12.0425 -7 12 C-7 10.68 -7 9.36 -7 8 C-10.43793339 8.18129815 -10.43793339 8.18129815 -14 9 C-15.30065921 10.93383287 -15.30065921 10.93383287 -16 13 C-16.99 13.33 -17.98 13.66 -19 14 C-17.59292256 9.52293541 -15.61508525 6.98637477 -12 4 C-9.39114092 2.78820749 -6.73061912 1.8921228 -4 1 C-2 0 -2 0 0 0 Z " fill="#4B4346" transform="translate(265,350)"/>
<path d="M0 0 C1.58212568 4.15307992 2.56775405 7.55259326 2 12 C0 14.875 0 14.875 -2 17 C-2 14.36 -2 11.72 -2 9 C-2.99 9 -3.98 9 -5 9 C-5.99 6.03 -6.98 3.06 -8 0 C-5.13822943 -1.43088528 -3.06624227 -0.59991697 0 0 Z " fill="#261F22" transform="translate(350,104)"/>
<path d="M0 0 C1.14926266 0.95421808 2.29430541 1.91352045 3.4375 2.875 C4.39462891 3.67550781 4.39462891 3.67550781 5.37109375 4.4921875 C7 6 7 6 8 8 C7.401875 8.12375 6.80375 8.2475 6.1875 8.375 C3.73768652 8.95475985 3.73768652 8.95475985 1 11 C2.134375 11.556875 3.26875 12.11375 4.4375 12.6875 C7.88661806 14.6336891 7.88661806 14.6336891 8.8125 17.625 C8.874375 18.40875 8.93625 19.1925 9 20 C9.66 20.66 10.32 21.32 11 22 C8 22 8 22 5.87890625 19.98828125 C4.73228516 18.66376953 4.73228516 18.66376953 3.5625 17.3125 C2.80066406 16.44238281 2.03882813 15.57226562 1.25390625 14.67578125 C-0.87414155 12.14941602 -2.95085328 9.5906069 -5 7 C-3.02 7 -1.04 7 1 7 C0.67 4.69 0.34 2.38 0 0 Z " fill="#433E40" transform="translate(321,64)"/>
<path d="M0 0 C3 1 3 1 4 3 C4.66 3 5.32 3 6 3 C5.64715325 5.61106596 5.30406662 7.55190182 3.8125 9.75 C1.31717101 11.47091655 -1.02493408 11.66943712 -4 12 C-4 11.01 -4 10.02 -4 9 C-3.34 8.67 -2.68 8.34 -2 8 C-2 6.68 -2 5.36 -2 4 C-2.66 3.67 -3.32 3.34 -4 3 C-2.1875 1.4375 -2.1875 1.4375 0 0 Z " fill="#2F2B2C" transform="translate(413,450)"/>
<path d="M0 0 C4.75647668 1.40932642 4.75647668 1.40932642 7 3 C8.24638204 5.71208453 8.55788536 8.00344519 9 11 C7.68 11 6.36 11 5 11 C4.67 10.34 4.34 9.68 4 9 C2.66923011 8.65657551 1.33568021 8.32380126 0 8 C-0.66 7.34 -1.32 6.68 -2 6 C-1.44444444 1.44444444 -1.44444444 1.44444444 0 0 Z " fill="#242121" transform="translate(380,275)"/>
<path d="M0 0 C2.90162011 1.68481168 3.59125442 4.12654395 4.9375 7.125 C5.5975 7.785 6.2575 8.445 6.9375 9.125 C6.2775 9.125 5.6175 9.125 4.9375 9.125 C4.9375 10.445 4.9375 11.765 4.9375 13.125 C3.9475 13.125 2.9575 13.125 1.9375 13.125 C1.73125 12.3825 1.525 11.64 1.3125 10.875 C-0.45865589 7.33268823 -2.69677951 6.10053159 -6.0625 4.125 C-2.70141578 0.16372217 -2.70141578 0.16372217 0 0 Z " fill="#252021" transform="translate(327.0625,70.875)"/>
<path d="M0 0 C0.33 0.66 0.66 1.32 1 2 C0.38125 2.9075 -0.2375 3.815 -0.875 4.75 C-2.44389611 7.14948817 -3.80443821 9.40961612 -5 12 C-5.66 12 -6.32 12 -7 12 C-7.268125 12.5775 -7.53625 13.155 -7.8125 13.75 C-9.01719859 16.0325868 -10.40798115 17.9737942 -12 20 C-13.32 19.34 -14.64 18.68 -16 18 C-15.26394531 17.28714844 -14.52789062 16.57429688 -13.76953125 15.83984375 C-8.66049212 10.84257304 -3.89169486 6.03883685 0 0 Z " fill="#454142" transform="translate(331,202)"/>
<path d="M0 0 C2.91227269 3.28804981 4.49701212 5.59885603 5 10 C3.02 10 1.04 10 -1 10 C-1 13.04200046 -0.44513658 15.99532806 0 19 C-0.33 18.01 -0.66 17.02 -1 16 C-1.66 16 -2.32 16 -3 16 C-3.66 13.36 -4.32 10.72 -5 8 C-4.01 8 -3.02 8 -2 8 C0.18777466 6.0624994 0.18777466 6.0624994 2 4 C1.34 4 0.68 4 0 4 C0 2.68 0 1.36 0 0 Z " fill="#4D474A" transform="translate(345,94)"/>
<path d="M0 0 C0.66 0.99 1.32 1.98 2 3 C1.34 4.32 0.68 5.64 0 7 C-0.66 6.67 -1.32 6.34 -2 6 C-2.33 6.99 -2.66 7.98 -3 9 C-4.98 9.33 -6.96 9.66 -9 10 C-6.92642516 4.93126149 -4.72763768 2.73152399 0 0 Z " fill="#241F21" transform="translate(111,281)"/>
<path d="M0 0 C1.125 3.75 1.125 3.75 0 6 C0.66 6 1.32 6 2 6 C2 6.66 2 7.32 2 8 C0.68 8.33 -0.64 8.66 -2 9 C-2.4021875 10.7015625 -2.4021875 10.7015625 -2.8125 12.4375 C-3.204375 13.613125 -3.59625 14.78875 -4 16 C-4.99 16.33 -5.98 16.66 -7 17 C-7.73323796 19.01508358 -7.73323796 19.01508358 -8 21 C-8.66 21 -9.32 21 -10 21 C-8.27502493 16.3970402 -6.0904129 12.06744176 -3.875 7.6875 C-3.50246094 6.94693359 -3.12992187 6.20636719 -2.74609375 5.44335938 C-1.83255194 3.62798783 -0.91652513 1.81386718 0 0 Z " fill="#5C5658" transform="translate(342,181)"/>
<path d="M0 0 C1.65 0.33 3.3 0.66 5 1 C5 2.32 5 3.64 5 5 C5.66 5 6.32 5 7 5 C5.768606 7.46278801 4.21935077 8.42497687 2 10 C1.34 9.67 0.68 9.34 0 9 C-0.99444068 5.65506316 -1.10348268 3.31044803 0 0 Z " fill="#272225" transform="translate(340,93)"/>
<path d="M0 0 C2.64 0.33 5.28 0.66 8 1 C8.33 2.32 8.66 3.64 9 5 C5.33694766 5.74926071 2.57644848 6.2380014 -1 5 C-0.67 3.35 -0.34 1.7 0 0 Z " fill="#262223" transform="translate(266,297)"/>
<path d="M0 0 C0.66 0 1.32 0 2 0 C1.21302675 3.41021743 0.12880057 6.68885166 -1 10 C-1.66 10 -2.32 10 -3 10 C-3.4021875 11.1446875 -3.4021875 11.1446875 -3.8125 12.3125 C-4.94424112 14.87380884 -5.91223401 16.19692938 -8 18 C-8 15 -8 15 -7 13 C-6.34 13 -5.68 13 -5 13 C-5.33 11.68 -5.66 10.36 -6 9 C-5.34 9 -4.68 9 -4 9 C-3.67 8.01 -3.34 7.02 -3 6 C-2.01577854 3.99218823 -1.01765927 1.99107248 0 0 Z " fill="#433A3D" transform="translate(346,190)"/>
<path d="M0 0 C3.51100436 5.26650653 3.2042886 10.33369909 2.02148438 16.30273438 C1.87001953 17.00720703 1.71855469 17.71167969 1.5625 18.4375 C1.41490234 19.16904297 1.26730469 19.90058594 1.11523438 20.65429688 C0.75376742 22.43831121 0.3783325 24.21948602 0 26 C-0.96541545 22.81445408 -1.05239684 20.11247293 -0.87890625 16.796875 C-0.83056641 15.8171875 -0.78222656 14.8375 -0.73242188 13.828125 C-0.67634766 12.81234375 -0.62027344 11.7965625 -0.5625 10.75 C-0.51029297 9.71875 -0.45808594 8.6875 -0.40429688 7.625 C-0.27484366 5.08300961 -0.13988672 2.54143407 0 0 Z " fill="#565253" transform="translate(349,138)"/>
<path d="M0 0 C1.32 0 2.64 0 4 0 C4.66 2.31 5.32 4.62 6 7 C3.3333581 8.33332095 1.83319697 7.67102033 -1 7 C-1.04254356 5.00045254 -1.04080783 2.99958364 -1 1 C-0.67 0.67 -0.34 0.34 0 0 Z " fill="#262324" transform="translate(317,64)"/>
<path d="M0 0 C2.97 0.495 2.97 0.495 6 1 C5.34 2.98 4.68 4.96 4 7 C2.02 7 0.04 7 -2 7 C-1.125 2.25 -1.125 2.25 0 0 Z " fill="#271E21" transform="translate(261,353)"/>
<path d="M0 0 C-5.2012246 3.55873262 -10.57998782 6.78655405 -16 10 C-15.67 8.35 -15.34 6.7 -15 5 C-14.34 5 -13.68 5 -13 5 C-12.34 3.68 -11.68 2.36 -11 1 C-10.34 1 -9.68 1 -9 1 C-8.67 1.66 -8.34 2.32 -8 3 C-7.34 2.01 -6.68 1.02 -6 0 C-3.39677846 -0.97620808 -2.52782417 -1.26391209 0 0 Z " fill="#5B5356" transform="translate(124,282)"/>
<path d="M0 0 C4.29 0 8.58 0 13 0 C13 0.33 13 0.66 13 1 C11.87980469 1.26554687 10.75960937 1.53109375 9.60546875 1.8046875 C8.13273662 2.16114496 6.66008449 2.51793308 5.1875 2.875 C4.44951172 3.04902344 3.71152344 3.22304688 2.95117188 3.40234375 C-0.49717037 4.24492511 -3.01928362 5.01285575 -6 7 C-8.1875 6.625 -8.1875 6.625 -10 6 C-9.67 5.34 -9.34 4.68 -9 4 C-6.95756472 3.36614078 -4.90867481 2.98173496 -2.8125 2.5625 C-2.214375 2.376875 -1.61625 2.19125 -1 2 C-0.67 1.34 -0.34 0.68 0 0 Z " fill="#60585B" transform="translate(153,265)"/>
<path d="M0 0 C1.44016986 0.00399308 2.88034065 0.01875683 4.3203125 0.04296875 C5.40119141 0.04393555 5.40119141 0.04393555 6.50390625 0.04492188 C9.97316829 0.07367267 13.11361237 0.26195127 16.4453125 1.23046875 C17.4353125 1.23046875 18.4253125 1.23046875 19.4453125 1.23046875 C19.4453125 2.55046875 19.4453125 3.87046875 19.4453125 5.23046875 C13.6953125 3.35546875 13.6953125 3.35546875 11.4453125 2.23046875 C8.56160917 2.15852006 5.70291586 2.13755167 2.8203125 2.16796875 C1.61761719 2.17473633 1.61761719 2.17473633 0.390625 2.18164062 C-1.59117756 2.19343707 -3.57294183 2.2113727 -5.5546875 2.23046875 C-3.5546875 0.23046875 -3.5546875 0.23046875 0 0 Z " fill="#797576" transform="translate(246.5546875,297.76953125)"/>
<path d="M0 0 C0.66 0.66 1.32 1.32 2 2 C0.25 5 0.25 5 -2 8 C-3.32 8 -4.64 8 -6 8 C-6 7.01 -6 6.02 -6 5 C-6.66 4.67 -7.32 4.34 -8 4 C-7.01 4 -6.02 4 -5 4 C-5 3.34 -5 2.68 -5 2 C-3.35 1.34 -1.7 0.68 0 0 Z " fill="#252022" transform="translate(310,227)"/>
<path d="M0 0 C2.97 0 5.94 0 9 0 C8.41196203 3.02419525 7.77321882 6.01758453 7 9 C3.87386607 6.03839944 1.95216435 3.90432869 0 0 Z " fill="#463E41" transform="translate(266,302)"/>
<path d="M0 0 C5.79355528 1.32768975 10.0999919 3.66544904 15 7 C14.34 7.66 13.68 8.32 13 9 C11.02 8.34 9.04 7.68 7 7 C7 6.01 7 5.02 7 4 C6.34 4 5.68 4 5 4 C5 3.34 5 2.68 5 2 C3.35 1.67 1.7 1.34 0 1 C0 0.67 0 0.34 0 0 Z " fill="#443F41" transform="translate(258,290)"/>
<path d="M0 0 C-0.33 1.32 -0.66 2.64 -1 4 C-1.639375 4.103125 -2.27875 4.20625 -2.9375 4.3125 C-3.618125 4.539375 -4.29875 4.76625 -5 5 C-5.33 5.99 -5.66 6.98 -6 8 C-8.31 7.34 -10.62 6.68 -13 6 C-10.65890118 4.43926745 -8.43666597 3.13626133 -5.9375 1.875 C-5.24527344 1.52179688 -4.55304688 1.16859375 -3.83984375 0.8046875 C-2 0 -2 0 0 0 Z " fill="#554F51" transform="translate(300,232)"/>
<path d="M0 0 C-0.03480469 1.15628906 -0.03480469 1.15628906 -0.0703125 2.3359375 C-0.08835937 3.33882813 -0.10640625 4.34171875 -0.125 5.375 C-0.14820313 6.37273437 -0.17140625 7.37046875 -0.1953125 8.3984375 C-0.27216848 11.16262173 -0.27216848 11.16262173 2 13 C1.34 14.65 0.68 16.3 0 18 C-0.33 18 -0.66 18 -1 18 C-1.50377768 15.73000175 -2.00290019 13.45896997 -2.5 11.1875 C-2.91765625 9.29064453 -2.91765625 9.29064453 -3.34375 7.35546875 C-4 4 -4 4 -4 1 C-1 0 -1 0 0 0 Z " fill="#3B3336" transform="translate(349,112)"/>
<path d="M0 0 C0.66 0 1.32 0 2 0 C1.80664062 0.6290625 1.61328125 1.258125 1.4140625 1.90625 C-0.2092125 7.24216385 -1.69460565 12.57759268 -3 18 C-3.33 18 -3.66 18 -4 18 C-4.33 15.03 -4.66 12.06 -5 9 C-4.34 9 -3.68 9 -3 9 C-3 7.35 -3 5.7 -3 4 C-2.01 3.67 -1.02 3.34 0 3 C0 2.01 0 1.02 0 0 Z " fill="#4F4A4C" transform="translate(92,308)"/>
<path d="M0 0 C2.475 0.99 2.475 0.99 5 2 C2.19195732 4.96404505 -0.18315774 7.44499019 -4 9 C-3.46930939 5.17902761 -2.50298434 2.93828597 0 0 Z " fill="#393033" transform="translate(311,229)"/>
<path d="M0 0 C1 3 1 3 0.1640625 4.734375 C-0.22007812 5.48203125 -0.60421875 6.2296875 -1 7 C-1.59298682 9.40458878 -2.13065418 11.82321143 -2.625 14.25 C-2.88539063 15.51328125 -3.14578125 16.7765625 -3.4140625 18.078125 C-3.60742188 19.04234375 -3.80078125 20.0065625 -4 21 C-4.33 21 -4.66 21 -5 21 C-5.49067456 13.51721294 -4.04453537 7.84714782 -1 1 C-0.67 0.67 -0.34 0.34 0 0 Z " fill="#5C5557" transform="translate(218,307)"/>
<path d="M0 0 C-0.33 0.66 -0.66 1.32 -1 2 C-2.890625 2.34375 -2.890625 2.34375 -5.25 2.5 C-8.11601876 2.74488135 -10.06060258 3.02479197 -12.75 4.125 C-15.54209375 5.21081424 -17.16471897 4.8100803 -20 4 C-13.93775593 0.67554357 -6.86061613 -0.36108506 0 0 Z " fill="#524C4E" transform="translate(186,252)"/>
<path d="M0 0 C0.66 0.33 1.32 0.66 2 1 C-5.11389522 9.6309795 -5.11389522 9.6309795 -10 12 C-8.52278578 8.54798361 -6.56205999 6.35038064 -3.875 3.75 C-3.15054688 3.04359375 -2.42609375 2.3371875 -1.6796875 1.609375 C-1.12539062 1.07828125 -0.57109375 0.5471875 0 0 Z " fill="#CBC8C9" transform="translate(235,301)"/>
<path d="M0 0 C1.14926266 0.95421808 2.29430541 1.91352045 3.4375 2.875 C4.07558594 3.40867187 4.71367187 3.94234375 5.37109375 4.4921875 C7 6 7 6 8 8 C7.401875 8.144375 6.80375 8.28875 6.1875 8.4375 C4.43849596 8.8872439 2.71322977 9.42892341 1 10 C1 9.01 1 8.02 1 7 C0.68330179 4.66435067 0.35179197 2.3306218 0 0 Z " fill="#3E393A" transform="translate(321,64)"/>
<path d="M0 0 C0.33 0 0.66 0 1 0 C1.28730852 4.88424492 1.32472595 8.21669117 -2 12 C-4.6875 12.3125 -4.6875 12.3125 -7 12 C-7.33 11.01 -7.66 10.02 -8 9 C-6.68 9.33 -5.36 9.66 -4 10 C-4 9.34 -4 8.68 -4 8 C-3.34 8 -2.68 8 -2 8 C-1.34 5.36 -0.68 2.72 0 0 Z " fill="#5F5B5C" transform="translate(222,319)"/>
<path d="M0 0 C0.66 0.33 1.32 0.66 2 1 C-1.96 4.96 -5.92 8.92 -10 13 C-10.66 12.67 -11.32 12.34 -12 12 C-10.71937515 10.2925002 -9.38232443 8.62626404 -8 7 C-7.34 7 -6.68 7 -6 7 C-6 6.34 -6 5.68 -6 5 C-4.04072937 3.2856382 -2.04119788 1.61594832 0 0 Z " fill="#D8D7D8" transform="translate(111,289)"/>
<path d="M0 0 C-1.65 0.33 -3.3 0.66 -5 1 C-5 1.66 -5 2.32 -5 3 C-10.28 3 -15.56 3 -21 3 C-21 2.67 -21 2.34 -21 2 C-18.25162151 1.46892686 -15.50187625 0.94984119 -12.75 0.4375 C-11.97269531 0.28603516 -11.19539063 0.13457031 -10.39453125 -0.02148438 C-9.64042969 -0.16005859 -8.88632812 -0.29863281 -8.109375 -0.44140625 C-7.07248535 -0.63778687 -7.07248535 -0.63778687 -6.01464844 -0.83813477 C-3.78712058 -1.01710362 -2.12493038 -0.65206197 0 0 Z " fill="#665F61" transform="translate(279,242)"/>
<path d="M0 0 C0 0.99 0 1.98 0 3 C0.66 3.33 1.32 3.66 2 4 C-1 6 -1 6 -3 7 C-4.5 5.625 -4.5 5.625 -6 4 C-6 3.34 -6 2.68 -6 2 C-2.25 0 -2.25 0 0 0 Z " fill="#241F21" transform="translate(377,272)"/>
<path d="M0 0 C0.33 0.66 0.66 1.32 1 2 C0.505 2.53625 0.01 3.0725 -0.5 3.625 C-2.37489544 6.59358445 -2.23501425 8.55312427 -2 12 C-3.98 12.33 -5.96 12.66 -8 13 C-6.40956621 7.91061189 -3.2553049 4.12543357 0 0 Z " fill="#524D4E" transform="translate(164,78)"/>
<path d="M0 0 C2.64 0.33 5.28 0.66 8 1 C4.8745041 3.64465038 1.91211733 4.84414715 -2 6 C-1.34 4.02 -0.68 2.04 0 0 Z " fill="#3C3437" transform="translate(295,239)"/>
<path d="M0 0 C0.33 1.32 0.66 2.64 1 4 C1.99 4.33 2.98 4.66 4 5 C3.34 5.66 2.68 6.32 2 7 C2 7.66 2 8.32 2 9 C0.35 10.32 -1.3 11.64 -3 13 C-2.01 8.71 -1.02 4.42 0 0 Z " fill="#443E40" transform="translate(347,166)"/>
<path d="M0 0 C0.66 0.33 1.32 0.66 2 1 C-0.23407889 4.35111834 -1.26215824 5.81553956 -5.25 6.8125 C-6.61125 6.9053125 -6.61125 6.9053125 -8 7 C-5.42215154 4.35247996 -3.08351902 2.05567935 0 0 Z " fill="#524D4E" transform="translate(112,277)"/>
<path d="M0 0 C1.670625 0.061875 1.670625 0.061875 3.375 0.125 C3.045 1.115 2.715 2.105 2.375 3.125 C0.395 3.125 -1.585 3.125 -3.625 3.125 C-3.625 4.775 -3.625 6.425 -3.625 8.125 C-4.285 8.125 -4.945 8.125 -5.625 8.125 C-5.75 5.25 -5.75 5.25 -5.625 2.125 C-3.625 0.125 -3.625 0.125 0 0 Z " fill="#807C7E" transform="translate(367.625,266.875)"/>
<path d="M0 0 C-1.75864246 2.1793144 -2.69396 2.93686419 -5.48046875 3.51171875 C-6.82044922 3.59873047 -6.82044922 3.59873047 -8.1875 3.6875 C-9.08855469 3.75324219 -9.98960937 3.81898438 -10.91796875 3.88671875 C-11.60503906 3.92410156 -12.29210937 3.96148437 -13 4 C-10.56272708 2.37515139 -8.62713877 1.34310925 -5.9375 0.3125 C-5.24527344 0.04050781 -4.55304688 -0.23148437 -3.83984375 -0.51171875 C-2 -1 -2 -1 0 0 Z " fill="#6A6667" transform="translate(147,262)"/>
<path d="M0 0 C0.66 0 1.32 0 2 0 C1.67 1.65 1.34 3.3 1 5 C0.01 5.33 -0.98 5.66 -2 6 C-2.73323796 8.01508358 -2.73323796 8.01508358 -3 10 C-3.66 10 -4.32 10 -5 10 C-3.66749209 6.4124787 -2.169283 3.1635377 0 0 Z " fill="#554E51" transform="translate(337,192)"/>
<path d="M0 0 C0.66 0.33 1.32 0.66 2 1 C-1.17320782 4.53586014 -3.16743695 6.58578031 -8 7 C-5.42215154 4.35247996 -3.08351902 2.05567935 0 0 Z " fill="#5B5356" transform="translate(190,54)"/>
<path d="M0 0 C1.10914742 3.32744227 1.03211839 5.64561525 0 9 C-1.5625 10.8125 -1.5625 10.8125 -3 12 C-2.14285714 3.42857143 -2.14285714 3.42857143 0 0 Z " fill="#575255" transform="translate(83,310)"/>
<path d="M0 0 C0 2 0 2 -1.625 4.125 C-4.60465619 6.47736015 -6.29706315 6.33663062 -10 6 C-4.4 0 -4.4 0 0 0 Z " fill="#625D5E" transform="translate(124,271)"/>
<path d="M0 0 C1.12758089 3.38274266 0.81750262 4.76778223 0.0625 8.1875 C-0.13214844 9.08855469 -0.32679688 9.98960937 -0.52734375 10.91796875 C-0.68332031 11.60503906 -0.83929688 12.29210937 -1 13 C-1.33 13 -1.66 13 -2 13 C-3.23076923 7.58461538 -3.23076923 7.58461538 -2.0625 4.625 C-1.711875 4.08875 -1.36125 3.5525 -1 3 C-1.66 2.67 -2.32 2.34 -3 2 C-2.01 1.34 -1.02 0.68 0 0 Z " fill="#514B4D" transform="translate(355,167)"/>
<path d="M0 0 C0.33 0.66 0.66 1.32 1 2 C0.00390625 4.1640625 0.00390625 4.1640625 -1.4375 6.625 C-1.91058594 7.44226563 -2.38367188 8.25953125 -2.87109375 9.1015625 C-3.24363281 9.72804688 -3.61617188 10.35453125 -4 11 C-4.66 11 -5.32 11 -6 11 C-4.54955729 6.89041233 -2.48889248 3.56741255 0 0 Z " fill="#544D50" transform="translate(90,298)"/>
<path d="M0 0 C1.33332095 2.6666419 0.67102033 4.16680303 0 7 C-0.66 7 -1.32 7 -2 7 C-2.33 8.32 -2.66 9.64 -3 11 C-4 8 -4 8 -3.22265625 5.95703125 C-2.83980469 5.24933594 -2.45695313 4.54164062 -2.0625 3.8125 C-1.68222656 3.09707031 -1.30195313 2.38164063 -0.91015625 1.64453125 C-0.60980469 1.10183594 -0.30945313 0.55914062 0 0 Z " fill="#625B5E" transform="translate(153,95)"/>
<path d="M0 0 C2.125 0.375 2.125 0.375 4 1 C3.01 1.33 2.02 1.66 1 2 C1.061875 2.78375 1.12375 3.5675 1.1875 4.375 C1.125625 5.24125 1.06375 6.1075 1 7 C0.01 7.66 -0.98 8.32 -2 9 C-2.125 5.625 -2.125 5.625 -2 2 C-1.34 1.34 -0.68 0.68 0 0 Z " fill="#423E3F" transform="translate(248,391)"/>
<path d="M0 0 C2.56616632 3.84924948 2.55097676 6.4349304 3 11 C2.34 10.67 1.68 10.34 1 10 C1 9.34 1 8.68 1 8 C0.34 7.67 -0.32 7.34 -1 7 C-0.67 4.69 -0.34 2.38 0 0 Z " fill="#4A4345" transform="translate(353,113)"/>
<path d="M0 0 C5.4611399 0.35233161 5.4611399 0.35233161 8 1 C9.5 3.0625 9.5 3.0625 10 5 C6.08788267 3.84414715 3.1254959 2.64465038 0 0 Z " fill="#605C5D" transform="translate(291,55)"/>
<path d="M0 0 C1.65 0 3.3 0 5 0 C5 0.66 5 1.32 5 2 C4.34 2 3.68 2 3 2 C3 2.66 3 3.32 3 4 C1.68 3.67 0.36 3.34 -1 3 C-0.67 2.01 -0.34 1.02 0 0 Z " fill="#282224" transform="translate(215,325)"/>
<path d="M0 0 C1 3 1 3 -0.4375 6.1875 C-1.2109375 7.5796875 -1.2109375 7.5796875 -2 9 C-2.66 7.68 -3.32 6.36 -4 5 C-2.68 3.35 -1.36 1.7 0 0 Z " fill="#403A3D" transform="translate(285,334)"/>
<path d="M0 0 C1.65 0 3.3 0 5 0 C5.33 1.98 5.66 3.96 6 6 C3.97945196 4.35830472 1.97956942 2.69088222 0 1 C0 0.67 0 0.34 0 0 Z " fill="#544F50" transform="translate(316,71)"/>
<path d="M0 0 C0.66 0.33 1.32 0.66 2 1 C-0.75 3.0625 -0.75 3.0625 -4 5 C-6.203125 4.62109375 -6.203125 4.62109375 -8 4 C-6.71349294 3.30289269 -5.42059335 2.61757124 -4.125 1.9375 C-3.40570313 1.55464844 -2.68640625 1.17179687 -1.9453125 0.77734375 C-1.30335938 0.52082031 -0.66140625 0.26429687 0 0 Z " fill="#666062" transform="translate(205,46)"/>
<path d="M0 0 C1.65 0 3.3 0 5 0 C5 2.31 5 4.62 5 7 C2.47411298 4.63707344 1.11179163 3.33537489 0 0 Z " fill="#4A4748" transform="translate(399,298)"/>
<path d="M0 0 C-1.75 1.5625 -1.75 1.5625 -4 3 C-6.25 2.6875 -6.25 2.6875 -8 2 C-7 0 -7 0 -5.125 -0.6875 C-3 -1 -3 -1 0 0 Z " fill="#665F62" transform="translate(151,269)"/>
<path d="M0 0 C0.33 0.66 0.66 1.32 1 2 C-0.8125 5 -0.8125 5 -3 8 C-3.99 8 -4.98 8 -6 8 C-4.02 5.36 -2.04 2.72 0 0 Z " fill="#5B5758" transform="translate(331,202)"/>
<path d="M0 0 C2.76223278 2.76223278 2.57856291 5.20706617 3 9 C2.34 8.67 1.68 8.34 1 8 C1 7.01 1 6.02 1 5 C0.34 5 -0.32 5 -1 5 C-0.67 3.35 -0.34 1.7 0 0 Z " fill="#7C7679" transform="translate(150,185)"/>
</svg>
